HIERARCHY
ROOT Hips
{
	OFFSET 0 0 0
	CHANNELS 6 Xposition Yposition Zposition Yrotation Xrotation Zrotation
	JOINT Spine
	{
		OFFSET -0 8.37147 -2.66841
		CHANNELS 3 Yrotation Xrotation Zrotation
		JOINT Spine1
		{
			OFFSET -0 8.81736 0
			CHANNELS 3 Yrotation Xrotation Zrotation
			JOINT Spine2
			{
				OFFSET -0 8.81736 0
				CHANNELS 3 Yrotation Xrotation Zrotation
				JOINT Spine3
				{
					OFFSET -0 8.81736 0
					CHANNELS 3 Yrotation Xrotation Zrotation
					JOINT Neck
					{
						OFFSET -0 20.2165 3.66841
						CHANNELS 3 Yrotation Xrotation Zrotation
						JOINT Head
						{
							OFFSET -0 10.4643 0
							CHANNELS 3 Yrotation Xrotation Zrotation
							End Site
							{
								OFFSET 0 15 0
							}
						}
					}
					JOINT LeftShoulder
					{
						OFFSET 1.74406 7.24 3.48811
						CHANNELS 3 Yrotation Xrotation Zrotation
						JOINT LeftArm
						{
							OFFSET 15.166 0 0
							CHANNELS 3 Yrotation Xrotation Zrotation
							JOINT LeftForeArm
							{
								OFFSET 25.1836 0 0
								CHANNELS 3 Yrotation Xrotation Zrotation
								JOINT LeftHand
								{
									OFFSET 23.8595 0 0
									CHANNELS 3 Yrotation Xrotation Zrotation
									End Site
									{
										OFFSET 15 0 0
									}
								}
							}
						}
					}
					JOINT RightShoulder
					{
						OFFSET -1.74406 7.24 3.48811
						CHANNELS 3 Yrotation Xrotation Zrotation
						JOINT RightArm
						{
							OFFSET -15.166 0 0
							CHANNELS 3 Yrotation Xrotation Zrotation
							JOINT RightForeArm
							{
								OFFSET -25.1836 0 0
								CHANNELS 3 Yrotation Xrotation Zrotation
								JOINT RightHand
								{
									OFFSET -23.8595 0 0
									CHANNELS 3 Yrotation Xrotation Zrotation
									End Site
									{
										OFFSET -15 0 0
									}
								}
							}
						}
					}
				}
			}
		}
	}
	JOINT LeftUpLeg
	{
		OFFSET 10.4643 -3.48811 2
		CHANNELS 3 Yrotation Xrotation Zrotation
		JOINT LeftLeg
		{
			OFFSET -0 -38.892 2.44168
			CHANNELS 3 Yrotation Xrotation Zrotation
			JOINT LeftFoot
			{
				OFFSET -0 -41.3956 -2.44168
				CHANNELS 3 Yrotation Xrotation Zrotation
				JOINT LeftToeBase
				{
					OFFSET -0 -6.7338 15.6965
					CHANNELS 3 Yrotation Xrotation Zrotation
					End Site
					{
						OFFSET 0 0 5
					}
				}
			}
		}
	}
	JOINT RightUpLeg
	{
		OFFSET -10.4643 -3.48811 2
		CHANNELS 3 Yrotation Xrotation Zrotation
		JOINT RightLeg
		{
			OFFSET -0 -38.892 2.44168
			CHANNELS 3 Yrotation Xrotation Zrotation
			JOINT RightFoot
			{
				OFFSET -0 -41.3956 -2.44168
				CHANNELS 3 Yrotation Xrotation Zrotation
				JOINT RightToeBase
				{
					OFFSET -0 -6.7338 15.6965
					CHANNELS 3 Yrotation Xrotation Zrotation
					End Site
					{
						OFFSET 0 0 5
					}
				}
			}
		}
	}
}
MOTION
Frames: 12
Frame Time: 0.00833333
0 93.707184 0 0 0 0 0 0 0 0 0 0 0 0 0 0 0 0 0 0 0 0 0 0 0 0 0 0 0 0 0 0 0 0 0 0 0 0 0 0 0 0 0 0 0 0 0 0 0 0 0 0 0 0 0 0 0 0 0 0 0 0 0 0 0 0 0 0 0 0 0 0
-87.142670 93.955096 39.528107 -4.126479 3.384300 0.595010 0.469293 -0.174632 -1.052701 0.417836 -0.267169 -0.815196 0.159611 -0.348996 -0.525816 0.089143 -0.343378 -0.233614 2.312546 -10.213852 2.356109 0.890750 10.166587 -2.057987 13.078024 8.960073 5.856253 -45.049587 3.437433 -64.154765 -4.109255 -3.424997 3.223953 4.186289 -5.328164 -17.383613 -6.741251 -1.274820 -6.661163 34.587558 16.095958 76.013872 8.673743 13.557750 -9.463011 -18.704288 -8.167795 25.212636 4.586953 0.318827 3.322302 0.000000 0.299383 0.000000 10.722079 0.908078 0.579184 0.000000 -4.633461 0.000000 -6.785150 -0.879573 -6.432815 0.000000 -0.854454 0.000000 -5.357619 2.110781 4.618949 0.000000 -2.722259 0.000000
-87.137299 93.952490 39.527542 -4.144674 3.384597 0.598629 0.465037 -0.167288 -1.067552 0.414046 -0.274187 -0.813592 0.161051 -0.353455 -0.515179 0.090822 -0.345010 -0.232335 2.317486 -10.185739 2.352784 0.893041 10.145424 -2.060709 13.064189 8.952003 5.842535 -44.991206 3.450879 -64.161113 -4.108596 -3.424410 3.218381 4.202169 -5.322789 -17.383470 -6.744807 -1.280888 -6.675998 34.608138 16.079654 76.005063 8.652548 13.565930 -9.445057 -18.711108 -8.141963 25.237112 4.603199 0.319413 3.313655 0.000000 0.307136 0.000000 10.721163 0.875921 0.586099 0.000000 -4.588036 0.000000 -6.782025 -0.881566 -6.438647 0.000000 -0.863715 0.000000 -5.350131 2.121926 4.614094 0.000000 -2.730694 0.000000
-87.131042 93.954071 39.525024 -4.151222 3.383083 0.596389 0.470107 -0.153826 -1.053634 0.419685 -0.265515 -0.817505 0.145837 -0.367177 -0.529708 0.075712 -0.358794 -0.249622 2.325178 -10.196786 2.373033 0.894923 10.166175 -2.045322 13.095140 8.963566 5.836969 -44.992858 3.477346 -64.131218 -4.108152 -3.397189 3.219941 4.184452 -5.346219 -17.406806 -6.731246 -1.275673 -6.646272 34.645522 16.098753 76.000560 8.660239 13.537532 -9.435773 -18.679771 -8.116732 25.201029 4.613259 0.318552 3.311118 0.000000 0.309252 0.000000 10.720207 0.882733 0.587540 0.000000 -4.593437 0.000000 -6.790384 -0.884377 -6.440603 0.000000 -0.862429 0.000000 -5.340634 2.112801 4.631083 0.000000 -2.689140 0.000000
-87.126202 93.954761 39.523999 -4.169663 3.382508 0.601720 0.472725 -0.154601 -1.062295 0.422311 -0.262837 -0.823690 0.146169 -0.362819 -0.529482 0.075454 -0.356257 -0.240210 2.312770 -10.191658 2.373801 0.889754 10.155105 -2.061109 13.086863 8.929150 5.824491 -45.003471 3.516117 -64.153830 -4.111237 -3.473099 3.231641 4.206325 -5.316886 -17.436407 -6.746940 -1.254933 -6.646015 34.687446 16.077380 75.973420 8.641442 13.558912 -9.426231 -18.656376 -8.126022 25.201445 4.614361 0.319862 3.303860 0.000000 0.314163 0.000000 10.752684 0.881212 0.564078 0.000000 -4.566600 0.000000 -6.776784 -0.883543 -6.450994 0.000000 -0.871882 0.000000 -5.327513 2.125628 4.623769 0.000000 -2.697705 0.000000
-87.120972 93.952094 39.520242 -4.170671 3.382173 0.599459 0.465466 -0.136041 -1.064150 0.415610 -0.259803 -0.824027 0.150299 -0.371396 -0.530824 0.079471 -0.379069 -0.241979 2.312672 -10.171020 2.376678 0.889056 10.152566 -2.053654 13.090346 8.924857 5.830643 -44.990343 3.514399 -64.162142 -4.086359 -3.375117 3.221937 4.188403 -5.403471 -17.424131 -6.750068 -1.257843 -6.638523 34.674173 16.092775 75.964369 8.642405 13.569497 -9.410978 -18.675061 -8.137445 25.193270 4.626149 0.319004 3.301128 0.000000 0.313795 0.000000 10.738998 0.876046 0.577914 0.000000 -4.551524 0.000000 -6.785989 -0.886127 -6.451737 0.000000 -0.874594 0.000000 -5.319328 2.139768 4.651417 0.000000 -2.735551 0.000000
-87.116046 93.953265 39.519327 -4.186510 3.382042 0.597831 0.460375 -0.132226 -1.069064 0.410628 -0.253664 -0.821683 0.165706 -0.373735 -0.526279 0.094846 -0.385805 -0.238348 2.289082 -10.180136 2.364274 0.879278 10.162896 -2.064598 13.091658 8.928598 5.812568 -45.025771 3.542894 -64.145989 -4.109172 -3.434044 3.209324 4.212313 -5.402724 -17.408325 -6.779347 -1.260614 -6.631610 34.697044 16.122351 75.947809 8.664823 13.604723 -9.409913 -18.705674 -8.184043 25.240559 4.624048 0.321251 3.298556 0.000000 0.312563 0.000000 10.748046 0.873477 0.576785 0.000000 -4.536957 0.000000 -6.790036 -0.889195 -6.452807 0.000000 -0.879959 0.000000 -5.298962 2.139062 4.615737 0.000000 -2.734989 0.000000
-87.110565 93.951721 39.517639 -4.194554 3.382902 0.598075 0.466033 -0.128706 -1.076539 0.416414 -0.247530 -0.818831 0.159181 -0.382766 -0.517104 0.088665 -0.384527 -0.242871 2.288730 -10.190027 2.335902 0.880462 10.172186 -2.034146 13.086206 8.936030 5.810185 -45.008120 3.542934 -64.151932 -4.108061 -3.379667 3.224338 4.187343 -5.477541 -17.392464 -6.778252 -1.254435 -6.650141 34.684105 16.091981 75.956754 8.631424 13.559148 -9.412388 -18.679784 -8.161524 25.236775 4.644014 0.320946 3.293170 0.000000 0.311347 0.000000 10.751657 0.873472 0.598398 0.000000 -4.501834 0.000000 -6.787493 -0.889205 -6.455901 0.000000 -0.889634 0.000000 -5.294219 2.147899 4.619540 0.000000 -2.767196 0.000000
-87.108423 93.951691 39.518680 -4.204050 3.383731 0.590588 0.472828 -0.137331 -1.053320 0.422969 -0.235156 -0.824110 0.147383 -0.353170 -0.539516 0.077349 -0.426374 -0.260417 2.290033 -10.186899 2.355954 0.879864 10.174094 -2.023691 13.109971 8.920659 5.820511 -45.014231 3.576069 -64.115751 -4.107322 -3.436756 3.147771 4.167397 -5.450261 -17.356043 -6.792349 -1.269092 -6.628475 34.720429 16.107043 75.989393 8.609696 13.595748 -9.449488 -18.710089 -8.249142 25.275842 4.626667 0.326700 3.298825 0.000000 0.304532 0.000000 10.774417 0.874892 0.599735 0.000000 -4.516751 0.000000 -6.789872 -0.892681 -6.450142 0.000000 -0.885211 0.000000 -5.285854 2.135772 4.648916 0.000000 -2.729264 0.000000
-87.103772 93.952930 39.520178 -4.217396 3.384394 0.590460 0.467912 -0.122922 -1.056877 0.418659 -0.248025 -0.823418 0.160745 -0.387650 -0.537505 0.090043 -0.390943 -0.255689 2.270550 -10.189274 2.312481 0.873778 10.168997 -1.987966 13.082002 8.935812 5.794756 -45.002906 3.589222 -64.115420 -4.111648 -3.526727 3.193860 4.144377 -5.378069 -17.387267 -6.782783 -1.271808 -6.629050 34.658383 16.106529 75.980241 8.599069 13.550747 -9.457173 -18.647799 -8.194223 25.296323 4.631977 0.327246 3.296031 0.000000 0.308061 0.000000 10.780345 0.861435 0.600073 0.000000 -4.512965 0.000000 -6.793389 -0.893586 -6.453232 0.000000 -0.891387 0.000000 -5.264522 2.152228 4.628244 0.000000 -2.740962 0.000000
-87.098187 93.952399 39.519116 -4.229242 3.387767 0.588882 0.467855 -0.133286 -1.050041 0.418207 -0.239710 -0.818515 0.159417 -0.358801 -0.538554 0.089717 -0.423251 -0.270432 2.263420 -10.175963 2.269557 0.873367 10.142156 -1.934290 13.073097 8.937317 5.788515 -44.952820 3.589879 -64.100584 -4.103941 -3.511246 3.164086 4.147806 -5.360603 -17.348845 -6.793581 -1.265154 -6.640319 34.654506 16.084006 75.996057 8.589612 13.576323 -9.474852 -18.636365 -8.149452 25.277032 4.638601 0.328433 3.293771 0.000000 0.301973 0.000000 10.778213 0.866844 0.587676 0.000000 -4.520204 0.000000 -6.778006 -0.893810 -6.453764 0.000000 -0.903497 0.000000 -5.272895 2.165913 4.632694 0.000000 -2.728115 0.000000
-87.096985 93.953235 39.519040 -4.251251 3.388184 0.592980 0.472626 -0.136993 -1.067084 0.422854 -0.229367 -0.824367 0.163449 -0.377018 -0.532983 0.093141 -0.400960 -0.257533 2.246534 -10.186893 2.267255 0.866985 10.127219 -1.965298 13.073447 8.928817 5.766922 -44.952865 3.605234 -64.079562 -4.112236 -3.602830 3.151756 4.156846 -5.271589 -17.314456 -6.809229 -1.275720 -6.633343 34.676655 16.090020 75.983174 8.587725 13.536921 -9.471569 -18.618512 -8.115298 25.269560 4.651248 0.328775 3.289827 0.000000 0.311954 0.000000 10.790706 0.857594 0.567055 0.000000 -4.463001 0.000000 -6.772179 -0.891888 -6.461614 0.000000 -0.913833 0.000000 -5.253652 2.153572 4.648777 0.000000 -2.709566 0.000000
